# xmcd
#
# Track frame offsets:
#	150
#	17422
#	34428
#	50844
#	67631
#	84770
#	105867
#	124706
#	145668
#	161068
#
# Disc length: 2471 seconds
#
# Revision: 0
# Processed by: cddbd v1.5.2PL0 Copyright (c) Steve Scherf et al.
# Submitted via: EZCDAudioConverter 7.1.0.1
#
DISCID=7209a50a
DTITLE=Webster Lewis -  Let Me Be The One
DYEAR=1981
DGENRE=
TTITLE0='bout Love - Webster Lewis
TTITLE1=Open Up Your Eyes - Webster Lewis
TTITLE2=You Are My Life - Webster Lewis
TTITLE3=Dancer - Webster Lewis
TTITLE4=Let Me Be The One - Webster Lewis
TTITLE5=Love Won't Harm No One - Webster Lewis
TTITLE6=El Bobo - Webster Lewis
TTITLE7=Kemo-Kimo - Webster Lewis
TTITLE8=Flying High - Webster Lewis
TTITLE9=Quiet Thing - Webster Lewis
EXTD=
EXTT0=
EXTT1=
EXTT2=
EXTT3=
EXTT4=
EXTT5=
EXTT6=
EXTT7=
EXTT8=
EXTT9=
PLAYORDER=
